# xmcd CD database file
#
# Track frame offsets:
#	150
#	17826
#	42438
#	62775
#	88446
#	111427
#	137852
#	158068
#	180817
#	212027
#	233764
#	260500
#	282349
#
# Disc length: 4079 seconds
#
# Revision: 0
# Processed by: cddbd v1.5.1PL0 Copyright (c) Steve Scherf et al.
# Submitted via: CDex 1.51
#
DISCID=bc0fed0d
DTITLE=Small World - Seasons of the Heart
DYEAR=1997
DGENRE=Jazz
TTITLE0=I Thought About You
TTITLE1=Seasons of the Heart
TTITLE2=It's You or No One
TTITLE3=Memories of You
TTITLE4=My Mama's Samba
TTITLE5=If I Had You
TTITLE6=Everything But You
TTITLE7=Centerpiece
TTITLE8=Young and Foolish
TTITLE9=The Lamp is Low
TTITLE10=Unless It's You
TTITLE11=Time After Time
TTITLE12=Photograph
EXTD=YEAR: 1997
EXTT0=
EXTT1=
EXTT2=
EXTT3=
EXTT4=
EXTT5=
EXTT6=
EXTT7=
EXTT8=
EXTT9=
EXTT10=
EXTT11=
EXTT12=
PLAYORDER=
